<svg width="128" height="128" viewBox="0 0 128 128" fill="none" xmlns="http://www.w3.org/2000/svg">
<path d="M0 64C0 28.6538 28.6538 0 64 0C99.3462 0 128 28.6538 128 64C128 99.3462 99.3462 128 64 128C28.6538 128 0 99.3462 0 64Z" fill="white"/>
<path d="M78.5724 83.526C79.4404 83.0249 103.502 97.8371 103.502 97.8371L113 81.0105L93.0071 69.6365C93.0071 69.6365 83.7822 64.0829 69.1987 72.5026C54.6153 80.9224 54.8124 91.6883 54.8124 91.6883L54.6662 114.69L73.9875 114.877C73.9875 114.877 73.1904 86.6333 74.2321 86.0319L78.5724 83.526Z" fill="#2D2D2D"/>
<path d="M73.6858 41.8772C72.8177 41.376 73.6148 13.1323 73.6148 13.1323L54.2935 13.3198L54.4397 36.3211C54.4397 36.3211 54.2426 47.087 68.826 55.5068C83.4095 63.9265 92.6344 58.3728 92.6344 58.3728L112.627 46.9989L103.129 30.1723C103.129 30.1723 79.0677 44.9845 78.0261 44.3831L73.6858 41.8772Z" fill="#2D2D2D"/>
<path d="M39.8393 66.3759C39.8393 67.3783 14.981 80.8098 14.981 80.8098L24.804 97.4489L44.6506 85.8216C44.6506 85.8216 54.0727 80.6093 54.0727 63.7698C54.0727 46.9303 44.6506 41.7181 44.6506 41.7181L24.804 30.0908L14.981 46.7298C14.981 46.7298 39.8393 60.1614 39.8393 61.3642V66.3759Z" fill="#9656FF"/>
</svg>
