<svg width="112" height="128" viewBox="0 0 112 128" fill="none" xmlns="http://www.w3.org/2000/svg">
<path d="M68.7569 85.107C69.6955 84.5651 95.7112 100.581 95.7112 100.581L105.981 82.3872L84.3642 70.0893C84.3642 70.0893 74.3899 64.0845 58.6218 73.1882C42.8538 82.2919 43.0669 93.9323 43.0669 93.9323L42.9088 118.802L63.7996 119.005C63.7996 119.005 62.9378 88.4667 64.064 87.8165L68.7569 85.107Z" fill="#2D2D2D"/>
<path d="M63.4734 40.0751C62.5349 39.5332 63.3967 8.99531 63.3967 8.99531L42.5059 9.19803L42.664 34.0677C42.664 34.0677 42.4509 45.7081 58.2189 54.8118C73.987 63.9155 83.9613 57.9107 83.9613 57.9107L105.578 45.6128L95.3083 27.4195C95.3083 27.4195 69.2926 43.4348 68.1663 42.7846L63.4734 40.0751Z" fill="#2D2D2D"/>
<path d="M26.8776 66.5639C26.8776 67.6477 2.05146e-06 82.1703 2.05146e-06 82.1703L10.621 100.161L32.0797 87.5891C32.0797 87.5891 42.2671 81.9535 42.2671 63.7461C42.2671 45.5388 32.0797 39.9031 32.0797 39.9031L10.621 27.3314L6.25326e-06 45.322C6.25326e-06 45.322 26.8776 59.8446 26.8776 61.1451L26.8776 66.5639Z" fill="#9656FF"/>
</svg>
