<svg width="411" height="73" viewBox="0 0 411 73" fill="none" xmlns="http://www.w3.org/2000/svg">
<path d="M44.5524 50.1468C45.1606 49.7957 62.0179 60.1731 62.0179 60.1731L68.6725 48.3844L54.6654 40.4157C54.6654 40.4157 48.2024 36.5248 37.9852 42.4237C27.7679 48.3227 27.9061 55.8653 27.9061 55.8653L27.8036 71.9801L41.3402 72.1114C41.3402 72.1114 40.7818 52.3238 41.5116 51.9024L44.5524 50.1468Z" fill="#2D2D2D"/>
<path d="M41.1288 20.9674C40.5207 20.6163 41.0792 0.828613 41.0792 0.828613L27.5425 0.959966L27.645 17.0748C27.645 17.0748 27.5069 24.6174 37.7241 30.5163C47.9413 36.4152 54.4044 32.5243 54.4044 32.5243L68.4114 24.5556L61.7569 12.7669C61.7569 12.7669 44.8995 23.1444 44.1697 22.723L41.1288 20.9674Z" fill="#2D2D2D"/>
<path d="M17.4158 38.1312C17.4158 38.8335 0 48.2436 0 48.2436L6.88207 59.901L20.7867 51.7549C20.7867 51.7549 27.3878 48.1032 27.3878 36.3054C27.3878 24.5075 20.7867 20.8558 20.7867 20.8558L6.88207 12.7097L2.72264e-06 24.3671C2.72264e-06 24.3671 17.4158 33.7773 17.4158 34.62V38.1312Z" fill="#9656FF"/>
<path d="M115.934 59.9999H103.925L87.9238 12.392H99.0752L109.963 49.7393H110.194L121.081 12.392H131.936L115.934 59.9999Z" fill="black"/>
<path d="M160.408 55.8759C157.263 59.1311 152.996 60.7587 147.607 60.7587C142.218 60.7587 137.951 59.1201 134.806 55.8429C131.661 52.5656 130.088 48.0457 130.088 42.283C130.088 36.5864 131.672 32.0994 134.839 28.8222C138.028 25.5229 142.284 23.8733 147.607 23.8733C152.952 23.8733 157.208 25.5229 160.375 28.8222C163.542 32.0994 165.126 36.5864 165.126 42.283C165.126 48.0677 163.553 52.5986 160.408 55.8759ZM147.607 53.4014C149.982 53.4014 151.863 52.4337 153.249 50.4981C154.634 48.5626 155.327 45.8352 155.327 42.316C155.327 38.8408 154.634 36.1245 153.249 34.1669C151.863 32.2094 149.982 31.2306 147.607 31.2306C145.231 31.2306 143.34 32.2094 141.932 34.1669C140.547 36.1245 139.854 38.8408 139.854 42.316C139.854 45.8352 140.547 48.5626 141.932 50.4981C143.318 52.4337 145.209 53.4014 147.607 53.4014Z" fill="black"/>
<path d="M202.242 37.7961H193.301C193.015 35.8825 192.256 34.3429 191.025 33.1772C189.815 32.0114 188.242 31.4286 186.307 31.4286C183.909 31.4286 182.018 32.3963 180.632 34.3319C179.268 36.2454 178.587 38.8958 178.587 42.283C178.587 45.7362 179.268 48.4196 180.632 50.3332C182.018 52.2467 183.92 53.2035 186.34 53.2035C188.253 53.2035 189.815 52.6646 191.025 51.5869C192.234 50.4871 192.993 48.9695 193.301 47.0339H202.275C202.033 51.213 200.461 54.5452 197.557 57.0306C194.654 59.516 190.882 60.7587 186.241 60.7587C180.874 60.7587 176.629 59.1201 173.506 55.8429C170.383 52.5436 168.821 48.0237 168.821 42.283C168.821 36.6304 170.383 32.1544 173.506 28.8552C176.651 25.5339 180.874 23.8733 186.175 23.8733C190.882 23.8733 194.676 25.171 197.557 27.7664C200.461 30.3618 202.022 33.705 202.242 37.7961Z" fill="black"/>
<path d="M220.586 53.5994C222.719 53.5994 224.523 52.9835 225.997 51.7518C227.492 50.4981 228.24 48.9255 228.24 47.0339V44.4605L220.784 44.9224C218.98 45.0544 217.584 45.5053 216.594 46.2751C215.626 47.0449 215.142 48.0567 215.142 49.3104C215.142 50.6301 215.637 51.6748 216.627 52.4447C217.617 53.2145 218.936 53.5994 220.586 53.5994ZM217.419 60.5608C214.009 60.5608 211.183 59.56 208.94 57.5585C206.696 55.5569 205.574 52.9835 205.574 49.8383C205.574 46.627 206.762 44.1086 209.138 42.283C211.513 40.4575 214.911 39.4127 219.332 39.1488L228.24 38.6209V36.2784C228.24 34.6508 227.701 33.3751 226.623 32.4513C225.568 31.5275 224.127 31.0657 222.301 31.0657C220.542 31.0657 219.101 31.4616 217.979 32.2534C216.88 33.0452 216.209 34.1119 215.967 35.4536H207.158C207.334 31.9784 208.819 29.1851 211.612 27.0736C214.405 24.9401 218.111 23.8733 222.73 23.8733C227.261 23.8733 230.89 24.9511 233.618 27.1066C236.345 29.2621 237.709 32.1214 237.709 35.6846V59.9999H228.405V54.5892H228.207C227.239 56.4367 225.766 57.8994 223.786 58.9771C221.807 60.0329 219.684 60.5608 217.419 60.5608Z" fill="black"/>
<path d="M264.96 60.5608C262.409 60.5608 260.166 59.9779 258.23 58.8122C256.317 57.6465 254.865 56.0188 253.875 53.9293H253.677V59.9999H244.175V12.392H253.809V30.7687H254.007C254.997 28.6572 256.437 27.0186 258.329 25.8529C260.221 24.6652 262.42 24.0713 264.927 24.0713C269.392 24.0713 272.901 25.6879 275.452 28.9212C278.025 32.1544 279.312 36.6194 279.312 42.316C279.312 47.9907 278.036 52.4557 275.485 55.7109C272.934 58.9441 269.425 60.5608 264.96 60.5608ZM261.628 31.7915C259.297 31.7915 257.405 32.7593 255.954 34.6948C254.502 36.6304 253.776 39.1708 253.776 42.316C253.776 45.5053 254.491 48.0567 255.921 49.9702C257.372 51.8618 259.275 52.8076 261.628 52.8076C264.048 52.8076 265.95 51.8728 267.336 50.0032C268.744 48.1117 269.447 45.5493 269.447 42.316C269.447 39.1048 268.744 36.5534 267.336 34.6618C265.928 32.7483 264.026 31.7915 261.628 31.7915Z" fill="black"/>
<path d="M284.327 59.9999V24.6322H293.631V30.9997H293.829C294.445 28.7562 295.478 27.0406 296.93 25.8529C298.382 24.6652 300.152 24.0713 302.242 24.0713C303.254 24.0713 304.166 24.1923 304.98 24.4342V32.9132C304.078 32.5393 302.913 32.3524 301.483 32.3524C299.107 32.3524 297.26 33.0452 295.94 34.4309C294.621 35.8165 293.961 37.7521 293.961 40.2375V59.9999H284.327Z" fill="black"/>
<path d="M321.74 53.5994C323.874 53.5994 325.677 52.9835 327.151 51.7518C328.647 50.4981 329.394 48.9255 329.394 47.0339V44.4605L321.938 44.9224C320.135 45.0544 318.738 45.5053 317.748 46.2751C316.78 47.0449 316.297 48.0567 316.297 49.3104C316.297 50.6301 316.791 51.6748 317.781 52.4447C318.771 53.2145 320.091 53.5994 321.74 53.5994ZM318.573 60.5608C315.164 60.5608 312.337 59.56 310.094 57.5585C307.85 55.5569 306.729 52.9835 306.729 49.8383C306.729 46.627 307.916 44.1086 310.292 42.283C312.667 40.4575 316.066 39.4127 320.487 39.1488L329.394 38.6209V36.2784C329.394 34.6508 328.856 33.3751 327.778 32.4513C326.722 31.5275 325.281 31.0657 323.456 31.0657C321.696 31.0657 320.256 31.4616 319.134 32.2534C318.034 33.0452 317.363 34.1119 317.121 35.4536H308.312C308.488 31.9784 309.973 29.1851 312.766 27.0736C315.56 24.9401 319.266 23.8733 323.885 23.8733C328.416 23.8733 332.045 24.9511 334.772 27.1066C337.5 29.2621 338.863 32.1214 338.863 35.6846V59.9999H329.559V54.5892H329.361C328.394 56.4367 326.92 57.8994 324.94 58.9771C322.961 60.0329 320.838 60.5608 318.573 60.5608Z" fill="black"/>
<path d="M344.241 59.9999V54.5232L361.859 32.1874V31.9894H344.505V24.6322H373.043V30.7357L356.481 52.4447V52.6096H373.439V59.9999H344.241Z" fill="black"/>
<path d="M394.29 30.9997C392.201 30.9997 390.452 31.7145 389.045 33.1442C387.659 34.5738 386.878 36.3994 386.702 38.6209H401.714C401.604 36.3554 400.867 34.5189 399.503 33.1112C398.161 31.7035 396.424 30.9997 394.29 30.9997ZM401.846 49.1784H410.687C410.16 52.6536 408.422 55.458 405.475 57.5915C402.549 59.703 398.909 60.7587 394.554 60.7587C389.121 60.7587 384.854 59.1311 381.753 55.8759C378.674 52.6206 377.134 48.1557 377.134 42.481C377.134 36.8283 378.674 32.3194 381.753 28.9541C384.832 25.5669 388.979 23.8733 394.191 23.8733C399.316 23.8733 403.396 25.479 406.431 28.6902C409.467 31.9015 410.984 36.2015 410.984 41.5902V44.5265H386.603V45.1204C386.603 47.6498 387.34 49.7063 388.814 51.2899C390.309 52.8516 392.278 53.6324 394.719 53.6324C396.479 53.6324 397.996 53.2365 399.272 52.4447C400.548 51.6309 401.406 50.5421 401.846 49.1784Z" fill="black"/>
</svg>
